<?xml version="1.0" encoding="UTF-8"?>
<svg xmlns="http://www.w3.org/2000/svg" xmlns:xlink="http://www.w3.org/1999/xlink" width="595.276pt" height="841.89pt" viewBox="0 0 595.276 841.89" version="1.1">
<g id="surface1">
<path style=" stroke:none;fill-rule:nonzero;fill:rgb(95.269775%,38.673401%,9.458923%);fill-opacity:1;" d="M 526.875 485.484375 C 526.875 487.929688 527.230469 490.105469 527.9375 492.011719 C 528.644531 493.917969 529.632813 495.519531 530.890625 496.816406 C 532.148438 498.113281 533.628906 499.097656 535.320313 499.769531 C 537.015625 500.445313 538.84375 500.78125 540.8125 500.78125 C 543.417969 500.78125 545.550781 500.132813 547.210938 498.847656 C 548.871094 497.558594 550.074219 495.570313 550.816406 492.878906 C 551.320313 494.113281 551.921875 495.167969 552.609375 496.046875 C 553.296875 496.921875 554.0625 497.644531 554.910156 498.203125 C 555.757813 498.761719 556.660156 499.171875 557.625 499.433594 C 558.589844 499.695313 559.589844 499.828125 560.625 499.828125 C 562.53125 499.828125 564.257813 499.542969 565.800781 498.972656 C 567.347656 498.402344 568.660156 497.492188 569.738281 496.242188 C 570.816406 494.992188 571.652344 493.375 572.246094 491.394531 C 572.839844 489.417969 573.136719 487.015625 573.136719 484.195313 L 573.136719 469.179688 L 526.875 469.179688 Z M 546.496094 485.261719 C 546.496094 486.457031 546.371094 487.445313 546.117188 488.230469 C 545.863281 489.011719 545.503906 489.644531 545.035156 490.121094 C 544.570313 490.597656 544 490.933594 543.320313 491.128906 C 542.644531 491.324219 541.882813 491.421875 541.035156 491.421875 C 540.296875 491.421875 539.5625 491.339844 538.84375 491.171875 C 538.125 491.003906 537.480469 490.695313 536.90625 490.246094 C 536.335938 489.796875 535.871094 489.175781 535.511719 488.382813 C 535.148438 487.589844 534.972656 486.570313 534.972656 485.316406 L 534.972656 478.652344 L 546.496094 478.652344 Z M 565.105469 478.652344 L 565.105469 484.195313 C 565.105469 485.261719 565.007813 486.179688 564.816406 486.957031 C 564.628906 487.730469 564.308594 488.371094 563.863281 488.875 C 563.421875 489.378906 562.832031 489.753906 562.101563 489.996094 C 561.371094 490.238281 560.457031 490.359375 559.355469 490.359375 C 558.234375 490.359375 557.304688 490.207031 556.5625 489.898438 C 555.820313 489.589844 555.238281 489.140625 554.816406 488.550781 C 554.390625 487.964844 554.097656 487.25 553.925781 486.410156 C 553.757813 485.570313 553.671875 484.625 553.671875 483.582031 L 553.671875 478.652344 Z M 565.105469 478.652344 "/>
<path style=" stroke:none;fill-rule:nonzero;fill:rgb(95.269775%,38.673401%,9.458923%);fill-opacity:1;" d="M 535.425781 442.082031 C 535.902344 441.082031 536.589844 440.234375 537.492188 439.546875 C 538.390625 438.855469 539.480469 438.328125 540.761719 437.964844 C 542.042969 437.597656 543.496094 437.417969 545.128906 437.417969 L 572.496094 437.417969 L 572.496094 427.949219 L 545.09375 427.949219 C 542.257813 427.949219 539.65625 428.351563 537.285156 429.152344 C 534.914063 429.957031 532.871094 431.113281 531.15625 432.625 C 529.441406 434.140625 528.109375 435.976563 527.15625 438.144531 C 526.203125 440.308594 525.726563 442.757813 525.726563 445.484375 C 525.726563 448.191406 526.203125 450.628906 527.15625 452.796875 C 528.109375 454.960938 529.441406 456.800781 531.15625 458.3125 C 532.871094 459.828125 534.914063 460.988281 537.285156 461.800781 C 539.65625 462.613281 542.257813 463.019531 545.09375 463.019531 L 572.496094 463.019531 L 572.496094 453.550781 L 545.09375 453.550781 C 543.464844 453.550781 542.007813 453.371094 540.730469 453.003906 C 539.449219 452.640625 538.367188 452.113281 537.476563 451.421875 C 536.585938 450.730469 535.902344 449.886719 535.425781 448.886719 C 534.949219 447.890625 534.710938 446.753906 534.710938 445.484375 C 534.710938 444.214844 534.949219 443.078125 535.425781 442.082031 "/>
<path style=" stroke:none;fill-rule:nonzero;fill:rgb(95.269775%,38.673401%,9.458923%);fill-opacity:1;" d="M 573.195313 423.320313 L 573.195313 413.796875 L 553.859375 413.796875 L 553.859375 397.210938 L 573.195313 397.210938 L 573.195313 387.6875 L 526.933594 387.6875 L 526.933594 397.210938 L 546.492188 397.210938 L 546.492188 413.796875 L 526.933594 413.796875 L 526.933594 423.320313 Z M 573.195313 423.320313 "/>
<path style=" stroke:none;fill-rule:nonzero;fill:rgb(95.269775%,38.673401%,9.458923%);fill-opacity:1;" d="M 81.785156 497.890625 C 81.566406 497.890625 81.386719 498.070313 81.386719 498.289063 C 81.386719 498.507813 81.566406 498.6875 81.785156 498.6875 C 82.007813 498.6875 82.183594 498.507813 82.183594 498.289063 C 82.183594 498.070313 82.007813 497.890625 81.785156 497.890625 M 81.785156 499.957031 C 80.867188 499.957031 80.117188 499.207031 80.117188 498.289063 C 80.117188 497.367188 80.867188 496.621094 81.785156 496.621094 C 82.707031 496.621094 83.457031 497.367188 83.457031 498.289063 C 83.457031 499.207031 82.707031 499.957031 81.785156 499.957031 "/>
<path style=" stroke:none;fill-rule:nonzero;fill:rgb(95.269775%,38.673401%,9.458923%);fill-opacity:1;" d="M 34.039063 473.617188 L 32.765625 473.617188 L 32.765625 442.246094 L 34.039063 442.246094 Z M 34.039063 473.617188 "/>
<path style=" stroke:none;fill-rule:nonzero;fill:rgb(95.269775%,38.673401%,9.458923%);fill-opacity:1;" d="M 93.261719 431.960938 L 25.574219 431.960938 L 25.574219 430.6875 L 93.261719 430.6875 Z M 93.261719 431.960938 "/>
<path style=" stroke:none;fill-rule:nonzero;fill:rgb(95.269775%,38.673401%,9.458923%);fill-opacity:1;" d="M 98.316406 474.761719 L 97.921875 441 L 36.992188 441 L 36.992188 439.730469 L 99.179688 439.730469 L 99.585938 474.746094 Z M 98.316406 474.761719 "/>
<path style=" stroke:none;fill-rule:nonzero;fill:rgb(95.269775%,38.673401%,9.458923%);fill-opacity:1;" d="M 86.722656 469.535156 L 86.332031 445.886719 L 47 445.886719 L 47 466.347656 L 45.730469 466.347656 L 45.730469 444.617188 L 87.582031 444.617188 L 87.992188 469.515625 Z M 86.722656 469.535156 "/>
<path style=" stroke:none;fill-rule:nonzero;fill:rgb(95.269775%,38.673401%,9.458923%);fill-opacity:1;" d="M 36.207031 426.785156 L 34.9375 426.785156 L 34.9375 400.285156 L 81.777344 400.285156 L 81.777344 401.554688 L 36.207031 401.554688 Z M 36.207031 426.785156 "/>
<path style=" stroke:none;fill-rule:nonzero;fill:rgb(95.269775%,38.673401%,9.458923%);fill-opacity:1;" d="M 100.777344 401.050781 L 92.234375 401.050781 L 92.234375 399.78125 L 99.507813 399.78125 L 99.507813 358.128906 L 100.777344 358.128906 Z M 100.777344 401.050781 "/>
<path style=" stroke:none;fill-rule:nonzero;fill:rgb(95.269775%,38.673401%,9.458923%);fill-opacity:1;" d="M 118.511719 422.238281 L 117.238281 422.238281 L 117.238281 358.816406 L 106.558594 358.816406 L 106.558594 357.546875 L 118.511719 357.546875 Z M 118.511719 422.238281 "/>
<path style=" stroke:none;fill-rule:nonzero;fill:rgb(95.269775%,38.673401%,9.458923%);fill-opacity:1;" d="M 120.101563 481.800781 L 118.832031 481.800781 L 118.832031 429.011719 L 100.011719 429.011719 L 100.011719 406.097656 L 101.28125 406.097656 L 101.28125 427.742188 L 120.101563 427.742188 Z M 120.101563 481.800781 "/>
<path style=" stroke:none;fill-rule:nonzero;fill:rgb(95.269775%,38.673401%,9.458923%);fill-opacity:1;" d="M 82.363281 497.488281 L 81.089844 497.488281 L 81.089844 461.382813 C 75.722656 454.855469 70.410156 451.785156 65.3125 452.265625 C 58.28125 452.925781 53.773438 460.234375 53.136719 461.324219 L 53.136719 481.820313 L 51.867188 481.820313 L 51.867188 460.996094 L 51.945313 460.851563 C 52.144531 460.484375 56.949219 451.78125 65.1875 451.003906 C 70.785156 450.46875 76.511719 453.757813 82.21875 460.753906 L 82.363281 460.929688 Z M 82.363281 497.488281 "/>
<path style=" stroke:none;fill-rule:nonzero;fill:rgb(95.269775%,38.673401%,9.458923%);fill-opacity:1;" d="M 76.90625 489.53125 L 75.636719 489.53125 C 75.636719 484.976563 74.488281 481.640625 72.222656 479.605469 C 69.460938 477.132813 65.96875 477.476563 65.9375 477.484375 C 58.191406 478.113281 57.261719 486.519531 57.226563 486.878906 L 55.964844 486.753906 C 55.972656 486.65625 57.019531 476.933594 65.816406 476.21875 C 65.964844 476.203125 69.894531 475.8125 73.070313 478.660156 C 75.617188 480.945313 76.90625 484.601563 76.90625 489.53125 "/>
<path style=" stroke:none;fill-rule:nonzero;fill:rgb(95.269775%,38.673401%,9.458923%);fill-opacity:1;" d="M 87.808594 410.148438 L 42.675781 410.148438 L 42.675781 408.878906 L 87.808594 408.878906 Z M 87.808594 410.148438 "/>
<path style=" stroke:none;fill-rule:nonzero;fill:rgb(95.269775%,38.673401%,9.458923%);fill-opacity:1;" d="M 116.878906 355.363281 L 110.015625 343.511719 C 107.003906 348.015625 102.691406 354.539063 102.425781 355.144531 L 101.230469 354.71875 C 101.460938 354.035156 107.109375 345.566406 109.527344 341.957031 L 110.09375 341.109375 L 117.976563 354.730469 Z M 116.878906 355.363281 "/>
<path style=" stroke:none;fill-rule:nonzero;fill:rgb(95.269775%,38.673401%,9.458923%);fill-opacity:1;" d="M 211.628906 400.496094 L 210.355469 400.496094 L 210.355469 358.445313 L 193.90625 358.445313 L 193.90625 370.199219 L 127.792969 370.199219 L 127.792969 368.929688 L 192.636719 368.929688 L 192.636719 357.175781 L 211.628906 357.175781 Z M 211.628906 400.496094 "/>
<path style=" stroke:none;fill-rule:nonzero;fill:rgb(95.269775%,38.673401%,9.458923%);fill-opacity:1;" d="M 192.394531 478.390625 L 191.125 478.390625 L 191.125 429.730469 L 192.714844 428.140625 L 192.714844 380.867188 L 121.5625 380.867188 L 121.5625 379.597656 L 193.988281 379.597656 L 193.988281 428.667969 L 192.394531 430.257813 Z M 192.394531 478.390625 "/>
<path style=" stroke:none;fill-rule:nonzero;fill:rgb(95.269775%,38.673401%,9.458923%);fill-opacity:1;" d="M 181.695313 403.5625 L 128.664063 403.5625 L 128.664063 402.289063 L 181.695313 402.289063 Z M 181.695313 403.5625 "/>
<path style=" stroke:none;fill-rule:nonzero;fill:rgb(95.269775%,38.673401%,9.458923%);fill-opacity:1;" d="M 276.285156 426.8125 L 275.011719 426.8125 L 275.011719 401.15625 L 217.046875 401.15625 L 217.046875 399.882813 L 276.285156 399.882813 Z M 276.285156 426.8125 "/>
<path style=" stroke:none;fill-rule:nonzero;fill:rgb(95.269775%,38.673401%,9.458923%);fill-opacity:1;" d="M 211.996094 422.808594 L 210.722656 422.808594 L 210.722656 408.925781 L 270.699219 408.925781 L 270.699219 410.195313 L 211.996094 410.195313 Z M 211.996094 422.808594 "/>
<path style=" stroke:none;fill-rule:nonzero;fill:rgb(95.269775%,38.673401%,9.458923%);fill-opacity:1;" d="M 278.5 448.949219 L 277.230469 448.949219 L 277.230469 439.75 L 285.183594 431.792969 L 219.773438 431.792969 L 219.773438 430.523438 L 288.25 430.523438 L 278.5 440.277344 Z M 278.5 448.949219 "/>
<path style=" stroke:none;fill-rule:nonzero;fill:rgb(95.269775%,38.673401%,9.458923%);fill-opacity:1;" d="M 188.402344 426.28125 L 122.472656 426.28125 L 122.472656 425.011719 L 188.402344 425.011719 Z M 188.402344 426.28125 "/>
<path style=" stroke:none;fill-rule:nonzero;fill:rgb(95.269775%,38.673401%,9.458923%);fill-opacity:1;" d="M 129.753906 478.394531 L 128.480469 478.394531 L 128.480469 456 L 128.539063 455.875 C 128.617188 455.703125 136.585938 438.746094 154.800781 433.277344 L 154.917969 433.242188 L 155.039063 433.253906 C 155.222656 433.269531 173.449219 435.15625 181.214844 455.722656 L 181.253906 455.949219 L 181.253906 474.765625 L 179.984375 474.765625 L 179.984375 456.0625 C 172.796875 437.183594 156.578125 434.722656 155.042969 434.53125 C 138.273438 439.625 130.492188 454.773438 129.753906 456.285156 Z M 129.753906 478.394531 "/>
<path style=" stroke:none;fill-rule:nonzero;fill:rgb(95.269775%,38.673401%,9.458923%);fill-opacity:1;" d="M 209.183594 354.789063 L 202.464844 343.714844 L 195.109375 354.59375 L 194.054688 353.882813 L 202.523438 341.359375 L 210.269531 354.132813 Z M 209.183594 354.789063 "/>
<path style=" stroke:none;fill-rule:nonzero;fill:rgb(95.269775%,38.673401%,9.458923%);fill-opacity:1;" d="M 213.640625 488.394531 L 212.371094 488.394531 L 212.371094 439.328125 L 270.699219 439.328125 L 270.699219 440.597656 L 213.640625 440.597656 Z M 213.640625 488.394531 "/>
<path style=" stroke:none;fill-rule:nonzero;fill:rgb(95.269775%,38.673401%,9.458923%);fill-opacity:1;" d="M 41.308594 439.910156 L 40.039063 439.910156 L 40.039063 431.734375 L 41.308594 431.734375 Z M 41.308594 439.910156 "/>
<path style=" stroke:none;fill-rule:nonzero;fill:rgb(95.269775%,38.673401%,9.458923%);fill-opacity:1;" d="M 48.757813 439.910156 L 47.484375 439.910156 L 47.484375 431.734375 L 48.757813 431.734375 Z M 48.757813 439.910156 "/>
<path style=" stroke:none;fill-rule:nonzero;fill:rgb(95.269775%,38.673401%,9.458923%);fill-opacity:1;" d="M 56.199219 439.910156 L 54.929688 439.910156 L 54.929688 431.734375 L 56.199219 431.734375 Z M 56.199219 439.910156 "/>
<path style=" stroke:none;fill-rule:nonzero;fill:rgb(95.269775%,38.673401%,9.458923%);fill-opacity:1;" d="M 128.910156 425.246094 L 127.636719 425.246094 L 127.636719 407.917969 L 128.910156 407.917969 Z M 128.910156 425.246094 "/>
<path style=" stroke:none;fill-rule:nonzero;fill:rgb(95.269775%,38.673401%,9.458923%);fill-opacity:1;" d="M 137.652344 425.246094 L 136.382813 425.246094 L 136.382813 407.917969 L 137.652344 407.917969 Z M 137.652344 425.246094 "/>
<path style=" stroke:none;fill-rule:nonzero;fill:rgb(95.269775%,38.673401%,9.458923%);fill-opacity:1;" d="M 146.394531 425.648438 L 145.125 425.648438 L 145.125 408.316406 L 146.394531 408.316406 Z M 146.394531 425.648438 "/>
<path style=" stroke:none;fill-rule:nonzero;fill:rgb(95.269775%,38.673401%,9.458923%);fill-opacity:1;" d="M 155.136719 425.648438 L 153.867188 425.648438 L 153.867188 408.316406 L 155.136719 408.316406 Z M 155.136719 425.648438 "/>
<path style=" stroke:none;fill-rule:nonzero;fill:rgb(95.269775%,38.673401%,9.458923%);fill-opacity:1;" d="M 163.882813 425.246094 L 162.609375 425.246094 L 162.609375 407.917969 L 163.882813 407.917969 Z M 163.882813 425.246094 "/>
<path style=" stroke:none;fill-rule:nonzero;fill:rgb(95.269775%,38.673401%,9.458923%);fill-opacity:1;" d="M 172.625 425.246094 L 171.351563 425.246094 L 171.351563 407.917969 L 172.625 407.917969 Z M 172.625 425.246094 "/>
<path style=" stroke:none;fill-rule:nonzero;fill:rgb(95.269775%,38.673401%,9.458923%);fill-opacity:1;" d="M 181.367188 425.246094 L 180.09375 425.246094 L 180.09375 407.917969 L 181.367188 407.917969 Z M 181.367188 425.246094 "/>
<path style=" stroke:none;fill-rule:nonzero;fill:rgb(95.269775%,38.673401%,9.458923%);fill-opacity:1;" d="M 63.648438 439.910156 L 62.375 439.910156 L 62.375 431.734375 L 63.648438 431.734375 Z M 63.648438 439.910156 "/>
<path style=" stroke:none;fill-rule:nonzero;fill:rgb(95.269775%,38.673401%,9.458923%);fill-opacity:1;" d="M 71.09375 439.910156 L 69.820313 439.910156 L 69.820313 431.734375 L 71.09375 431.734375 Z M 71.09375 439.910156 "/>
<path style=" stroke:none;fill-rule:nonzero;fill:rgb(95.269775%,38.673401%,9.458923%);fill-opacity:1;" d="M 78.539063 439.910156 L 77.265625 439.910156 L 77.265625 431.734375 L 78.539063 431.734375 Z M 78.539063 439.910156 "/>
<path style=" stroke:none;fill-rule:nonzero;fill:rgb(95.269775%,38.673401%,9.458923%);fill-opacity:1;" d="M 85.984375 439.910156 L 84.714844 439.910156 L 84.714844 431.734375 L 85.984375 431.734375 Z M 85.984375 439.910156 "/>
<path style=" stroke:none;fill-rule:nonzero;fill:rgb(95.269775%,38.673401%,9.458923%);fill-opacity:1;" d="M 91.707031 439.910156 L 90.433594 439.910156 L 90.433594 431.734375 L 91.707031 431.734375 Z M 91.707031 439.910156 "/>
<path style=" stroke:none;fill-rule:nonzero;fill:rgb(95.269775%,38.673401%,9.458923%);fill-opacity:1;" d="M 193.289063 408.960938 L 121.5625 408.960938 L 121.5625 407.691406 L 193.289063 407.691406 Z M 193.289063 408.960938 "/>
<path style=" stroke:none;fill-rule:nonzero;fill:rgb(95.269775%,38.673401%,9.458923%);fill-opacity:1;" d="M 213.652344 434.855469 L 212.378906 434.855469 L 212.378906 430.480469 L 210.984375 428.949219 L 195.335938 428.949219 L 195.335938 427.679688 L 211.542969 427.679688 L 213.652344 429.988281 Z M 213.652344 434.855469 "/>
<path style=" stroke:none;fill-rule:nonzero;fill:rgb(95.269775%,38.673401%,9.458923%);fill-opacity:1;" d="M 210.226563 406.742188 L 193.804688 406.742188 L 193.804688 405.472656 L 210.226563 405.472656 Z M 210.226563 406.742188 "/>
<path style=" stroke:none;fill-rule:nonzero;fill:rgb(95.269775%,38.673401%,9.458923%);fill-opacity:1;" d="M 211.308594 381.011719 L 193.804688 381.011719 L 193.804688 379.738281 L 211.308594 379.738281 Z M 211.308594 381.011719 "/>
<path style=" stroke:none;fill-rule:nonzero;fill:rgb(95.269775%,38.673401%,9.458923%);fill-opacity:1;" d="M 117.820313 381.011719 L 100.195313 381.011719 L 100.195313 379.738281 L 117.820313 379.738281 Z M 117.820313 381.011719 "/>
<path style=" stroke:none;fill-rule:nonzero;fill:rgb(95.269775%,38.673401%,9.458923%);fill-opacity:1;" d="M 117.820313 407.144531 L 100.59375 407.144531 L 100.59375 405.871094 L 117.820313 405.871094 Z M 117.820313 407.144531 "/>
<path style=" stroke:none;fill-rule:nonzero;fill:rgb(95.269775%,38.673401%,9.458923%);fill-opacity:1;" d="M 193.289063 376.414063 L 117.820313 376.414063 L 117.820313 375.140625 L 193.289063 375.140625 Z M 193.289063 376.414063 "/>
<path style=" stroke:none;fill-rule:nonzero;fill:rgb(95.269775%,38.673401%,9.458923%);fill-opacity:1;" d="M 193.910156 377.5625 L 192.640625 377.5625 L 192.640625 369.382813 L 193.910156 369.382813 Z M 193.910156 377.5625 "/>
<path style=" stroke:none;fill-rule:nonzero;fill:rgb(95.269775%,38.673401%,9.458923%);fill-opacity:1;" d="M 119.070313 442.226563 L 115.84375 439.402344 L 102.664063 439.296875 L 98.90625 441.703125 L 98.222656 440.632813 L 102.296875 438.023438 L 116.328125 438.136719 L 119.90625 441.269531 Z M 119.070313 442.226563 "/>
<path style=" stroke:none;fill-rule:nonzero;fill:rgb(95.269775%,38.673401%,9.458923%);fill-opacity:1;" d="M 119.070313 452.992188 L 115.84375 450.167969 L 102.664063 450.058594 L 98.90625 452.464844 L 98.222656 451.398438 L 102.296875 448.785156 L 116.328125 448.898438 L 119.90625 452.035156 Z M 119.070313 452.992188 "/>
<path style=" stroke:none;fill-rule:nonzero;fill:rgb(95.269775%,38.673401%,9.458923%);fill-opacity:1;" d="M 119.0625 463.753906 L 115.886719 460.929688 L 102.898438 460.824219 L 99.195313 463.230469 L 98.503906 462.164063 L 102.523438 459.550781 L 116.375 459.664063 L 119.90625 462.804688 Z M 119.0625 463.753906 "/>
<path style=" stroke:none;fill-rule:nonzero;fill:rgb(95.269775%,38.673401%,9.458923%);fill-opacity:1;" d="M 119.0625 473.550781 L 115.886719 470.730469 L 102.898438 470.621094 L 99.195313 473.027344 L 98.503906 471.964844 L 102.523438 469.347656 L 116.375 469.464844 L 119.90625 472.601563 Z M 119.0625 473.550781 "/>
<path style=" stroke:none;fill-rule:nonzero;fill:rgb(95.269775%,38.673401%,9.458923%);fill-opacity:1;" d="M 212.183594 474.898438 L 208.960938 472.074219 L 195.78125 471.96875 L 192.023438 474.371094 L 191.335938 473.300781 L 195.414063 470.695313 L 209.441406 470.808594 L 213.019531 473.941406 Z M 212.183594 474.898438 "/>
<path style=" stroke:none;fill-rule:nonzero;fill:rgb(95.269775%,38.673401%,9.458923%);fill-opacity:1;" d="M 212.40625 463.476563 L 209.179688 460.652344 L 196 460.542969 L 192.242188 462.949219 L 191.558594 461.878906 L 195.632813 459.269531 L 209.664063 459.382813 L 213.242188 462.519531 Z M 212.40625 463.476563 "/>
<path style=" stroke:none;fill-rule:nonzero;fill:rgb(95.269775%,38.673401%,9.458923%);fill-opacity:1;" d="M 212.144531 452.992188 L 208.921875 450.167969 L 195.738281 450.058594 L 191.980469 452.464844 L 191.296875 451.398438 L 195.371094 448.785156 L 209.402344 448.898438 L 212.980469 452.035156 Z M 212.144531 452.992188 "/>
<path style=" stroke:none;fill-rule:nonzero;fill:rgb(95.269775%,38.673401%,9.458923%);fill-opacity:1;" d="M 212.753906 440.800781 L 209.527344 437.980469 L 196.347656 437.871094 L 192.589844 440.277344 L 191.90625 439.207031 L 195.980469 436.597656 L 210.011719 436.710938 L 213.589844 439.84375 Z M 212.753906 440.800781 "/>
<path style=" stroke:none;fill-rule:nonzero;fill:rgb(95.269775%,38.673401%,9.458923%);fill-opacity:1;" d="M 132.589844 433.984375 C 131.046875 433.984375 129.792969 435.238281 129.792969 436.78125 C 129.792969 438.320313 131.046875 439.578125 132.589844 439.578125 C 134.132813 439.578125 135.382813 438.320313 135.382813 436.78125 C 135.382813 435.238281 134.132813 433.984375 132.589844 433.984375 M 132.589844 440.84375 C 130.347656 440.84375 128.523438 439.023438 128.523438 436.78125 C 128.523438 434.539063 130.347656 432.714844 132.589844 432.714844 C 134.832031 432.714844 136.65625 434.539063 136.65625 436.78125 C 136.65625 439.023438 134.832031 440.84375 132.589844 440.84375 "/>
<path style=" stroke:none;fill-rule:nonzero;fill:rgb(95.269775%,38.673401%,9.458923%);fill-opacity:1;" d="M 178.691406 433.984375 C 177.148438 433.984375 175.894531 435.238281 175.894531 436.78125 C 175.894531 438.320313 177.148438 439.578125 178.691406 439.578125 C 180.234375 439.578125 181.488281 438.320313 181.488281 436.78125 C 181.488281 435.238281 180.234375 433.984375 178.691406 433.984375 M 178.691406 440.84375 C 176.449219 440.84375 174.625 439.023438 174.625 436.78125 C 174.625 434.539063 176.449219 432.714844 178.691406 432.714844 C 180.933594 432.714844 182.757813 434.539063 182.757813 436.78125 C 182.757813 439.023438 180.933594 440.84375 178.691406 440.84375 "/>
<path style=" stroke:none;fill-rule:nonzero;fill:rgb(95.269775%,38.673401%,9.458923%);fill-opacity:1;" d="M 104.121094 368.410156 L 104.222656 368.410156 L 104.222656 363.195313 L 104.121094 363.195313 Z M 105.492188 369.679688 L 102.851563 369.679688 L 102.851563 361.925781 L 105.492188 361.925781 Z M 105.492188 369.679688 "/>
<path style=" stroke:none;fill-rule:nonzero;fill:rgb(95.269775%,38.673401%,9.458923%);fill-opacity:1;" d="M 196.992188 369.035156 L 197.089844 369.035156 L 197.089844 363.820313 L 196.992188 363.820313 Z M 198.359375 370.304688 L 195.71875 370.304688 L 195.71875 362.550781 L 198.359375 362.550781 Z M 198.359375 370.304688 "/>
<path style=" stroke:none;fill-rule:nonzero;fill:rgb(95.269775%,38.673401%,9.458923%);fill-opacity:1;" d="M 114.523438 368.410156 L 114.621094 368.410156 L 114.621094 363.195313 L 114.523438 363.195313 Z M 115.890625 369.679688 L 113.253906 369.679688 L 113.253906 361.925781 L 115.890625 361.925781 Z M 115.890625 369.679688 "/>
<path style=" stroke:none;fill-rule:nonzero;fill:rgb(95.269775%,38.673401%,9.458923%);fill-opacity:1;" d="M 207.390625 369.035156 L 207.488281 369.035156 L 207.488281 363.820313 L 207.390625 363.820313 Z M 208.761719 370.304688 L 206.121094 370.304688 L 206.121094 362.550781 L 208.761719 362.550781 Z M 208.761719 370.304688 "/>
<path style=" stroke:none;fill-rule:nonzero;fill:rgb(95.269775%,38.673401%,9.458923%);fill-opacity:1;" d="M 109.5625 366.023438 L 109.660156 366.023438 L 109.660156 360.808594 L 109.5625 360.808594 Z M 110.933594 367.292969 L 108.292969 367.292969 L 108.292969 359.539063 L 110.933594 359.539063 Z M 110.933594 367.292969 "/>
<path style=" stroke:none;fill-rule:nonzero;fill:rgb(95.269775%,38.673401%,9.458923%);fill-opacity:1;" d="M 202.429688 366.648438 L 202.527344 366.648438 L 202.527344 361.433594 L 202.429688 361.433594 Z M 203.800781 367.917969 L 201.160156 367.917969 L 201.160156 360.164063 L 203.800781 360.164063 Z M 203.800781 367.917969 "/>
<path style=" stroke:none;fill-rule:nonzero;fill:rgb(95.269775%,38.673401%,9.458923%);fill-opacity:1;" d="M 220.953125 439.511719 L 219.683594 439.511719 L 219.683594 431.359375 L 220.953125 431.359375 Z M 220.953125 439.511719 "/>
<path style=" stroke:none;fill-rule:nonzero;fill:rgb(95.269775%,38.673401%,9.458923%);fill-opacity:1;" d="M 228.226563 439.511719 L 226.953125 439.511719 L 226.953125 431.359375 L 228.226563 431.359375 Z M 228.226563 439.511719 "/>
<path style=" stroke:none;fill-rule:nonzero;fill:rgb(95.269775%,38.673401%,9.458923%);fill-opacity:1;" d="M 235.496094 439.511719 L 234.226563 439.511719 L 234.226563 431.359375 L 235.496094 431.359375 Z M 235.496094 439.511719 "/>
<path style=" stroke:none;fill-rule:nonzero;fill:rgb(95.269775%,38.673401%,9.458923%);fill-opacity:1;" d="M 242.226563 439.511719 L 240.957031 439.511719 L 240.957031 431.359375 L 242.226563 431.359375 Z M 242.226563 439.511719 "/>
<path style=" stroke:none;fill-rule:nonzero;fill:rgb(95.269775%,38.673401%,9.458923%);fill-opacity:1;" d="M 248.957031 439.511719 L 247.6875 439.511719 L 247.6875 431.359375 L 248.957031 431.359375 Z M 248.957031 439.511719 "/>
<path style=" stroke:none;fill-rule:nonzero;fill:rgb(95.269775%,38.673401%,9.458923%);fill-opacity:1;" d="M 255.6875 439.511719 L 254.417969 439.511719 L 254.417969 431.359375 L 255.6875 431.359375 Z M 255.6875 439.511719 "/>
<path style=" stroke:none;fill-rule:nonzero;fill:rgb(95.269775%,38.673401%,9.458923%);fill-opacity:1;" d="M 262.546875 439.511719 L 261.273438 439.511719 L 261.273438 431.359375 L 262.546875 431.359375 Z M 262.546875 439.511719 "/>
<path style=" stroke:none;fill-rule:nonzero;fill:rgb(95.269775%,38.673401%,9.458923%);fill-opacity:1;" d="M 269.402344 439.511719 L 268.132813 439.511719 L 268.132813 431.359375 L 269.402344 431.359375 Z M 269.402344 439.511719 "/>
<path style=" stroke:none;fill-rule:nonzero;fill:rgb(95.269775%,38.673401%,9.458923%);fill-opacity:1;" d="M 106.90625 413.175781 L 106.949219 413.175781 L 106.90625 407.585938 Z M 108.21875 414.449219 L 105.636719 414.449219 L 105.636719 406.316406 L 108.21875 406.316406 Z M 108.21875 414.449219 "/>
<path style=" stroke:none;fill-rule:nonzero;fill:rgb(95.269775%,38.673401%,9.458923%);fill-opacity:1;" d="M 199.390625 413.175781 L 199.429688 413.175781 L 199.390625 407.585938 Z M 200.699219 414.449219 L 198.117188 414.449219 L 198.117188 406.316406 L 200.699219 406.316406 Z M 200.699219 414.449219 "/>
<path style=" stroke:none;fill-rule:nonzero;fill:rgb(95.269775%,38.673401%,9.458923%);fill-opacity:1;" d="M 112.421875 413.175781 L 112.464844 413.175781 L 112.421875 407.585938 Z M 113.734375 414.449219 L 111.152344 414.449219 L 111.152344 406.316406 L 113.734375 406.316406 Z M 113.734375 414.449219 "/>
<path style=" stroke:none;fill-rule:nonzero;fill:rgb(95.269775%,38.673401%,9.458923%);fill-opacity:1;" d="M 204.90625 413.175781 L 204.945313 413.175781 L 204.90625 407.585938 Z M 206.21875 414.449219 L 203.636719 414.449219 L 203.636719 406.316406 L 206.21875 406.316406 Z M 206.21875 414.449219 "/>
<path style=" stroke:none;fill-rule:nonzero;fill:rgb(95.269775%,38.673401%,9.458923%);fill-opacity:1;" d="M 35.386719 427 C 34.917969 427 34.535156 427.382813 34.535156 427.855469 C 34.535156 428.324219 34.917969 428.707031 35.386719 428.707031 C 35.859375 428.707031 36.242188 428.324219 36.242188 427.855469 C 36.242188 427.382813 35.859375 427 35.386719 427 M 35.386719 429.976563 C 34.214844 429.976563 33.265625 429.023438 33.265625 427.855469 C 33.265625 426.683594 34.214844 425.730469 35.386719 425.730469 C 36.558594 425.730469 37.511719 426.683594 37.511719 427.855469 C 37.511719 429.023438 36.558594 429.976563 35.386719 429.976563 "/>
<path style=" stroke:none;fill-rule:nonzero;fill:rgb(95.269775%,38.673401%,9.458923%);fill-opacity:1;" d="M 82.980469 400.015625 C 82.507813 400.015625 82.125 400.398438 82.125 400.871094 C 82.125 401.339844 82.507813 401.722656 82.980469 401.722656 C 83.449219 401.722656 83.832031 401.339844 83.832031 400.871094 C 83.832031 400.398438 83.449219 400.015625 82.980469 400.015625 M 82.980469 402.996094 C 81.808594 402.996094 80.855469 402.042969 80.855469 400.871094 C 80.855469 399.699219 81.808594 398.746094 82.980469 398.746094 C 84.148438 398.746094 85.101563 399.699219 85.101563 400.871094 C 85.101563 402.042969 84.148438 402.996094 82.980469 402.996094 "/>
<path style=" stroke:none;fill-rule:nonzero;fill:rgb(95.269775%,38.673401%,9.458923%);fill-opacity:1;" d="M 90.851563 400.015625 C 90.382813 400.015625 90 400.398438 90 400.871094 C 90 401.339844 90.382813 401.722656 90.851563 401.722656 C 91.324219 401.722656 91.707031 401.339844 91.707031 400.871094 C 91.707031 400.398438 91.324219 400.015625 90.851563 400.015625 M 90.851563 402.996094 C 89.679688 402.996094 88.726563 402.042969 88.726563 400.871094 C 88.726563 399.699219 89.679688 398.746094 90.851563 398.746094 C 92.023438 398.746094 92.976563 399.699219 92.976563 400.871094 C 92.976563 402.042969 92.023438 402.996094 90.851563 402.996094 "/>
<path style=" stroke:none;fill-rule:nonzero;fill:rgb(95.269775%,38.673401%,9.458923%);fill-opacity:1;" d="M 89.105469 408.65625 C 88.632813 408.65625 88.25 409.039063 88.25 409.507813 C 88.25 409.980469 88.632813 410.363281 89.105469 410.363281 C 89.574219 410.363281 89.957031 409.980469 89.957031 409.507813 C 89.957031 409.039063 89.574219 408.65625 89.105469 408.65625 M 89.105469 411.632813 C 87.933594 411.632813 86.980469 410.679688 86.980469 409.507813 C 86.980469 408.339844 87.933594 407.382813 89.105469 407.382813 C 90.277344 407.382813 91.226563 408.339844 91.226563 409.507813 C 91.226563 410.679688 90.277344 411.632813 89.105469 411.632813 "/>
<path style=" stroke:none;fill-rule:nonzero;fill:rgb(95.269775%,38.673401%,9.458923%);fill-opacity:1;" d="M 41.601563 408.65625 C 41.132813 408.65625 40.75 409.039063 40.75 409.507813 C 40.75 409.980469 41.132813 410.363281 41.601563 410.363281 C 42.074219 410.363281 42.457031 409.980469 42.457031 409.507813 C 42.457031 409.039063 42.074219 408.65625 41.601563 408.65625 M 41.601563 411.632813 C 40.429688 411.632813 39.476563 410.679688 39.476563 409.507813 C 39.476563 408.339844 40.429688 407.382813 41.601563 407.382813 C 42.773438 407.382813 43.726563 408.339844 43.726563 409.507813 C 43.726563 410.679688 42.773438 411.632813 41.601563 411.632813 "/>
<path style=" stroke:none;fill-rule:nonzero;fill:rgb(95.269775%,38.673401%,9.458923%);fill-opacity:1;" d="M 94.734375 430.0625 C 94.265625 430.0625 93.882813 430.445313 93.882813 430.917969 C 93.882813 431.386719 94.265625 431.773438 94.734375 431.773438 C 95.207031 431.773438 95.589844 431.386719 95.589844 430.917969 C 95.589844 430.445313 95.207031 430.0625 94.734375 430.0625 M 94.734375 433.042969 C 93.5625 433.042969 92.609375 432.089844 92.609375 430.917969 C 92.609375 429.746094 93.5625 428.792969 94.734375 428.792969 C 95.90625 428.792969 96.859375 429.746094 96.859375 430.917969 C 96.859375 432.089844 95.90625 433.042969 94.734375 433.042969 "/>
<path style=" stroke:none;fill-rule:nonzero;fill:rgb(95.269775%,38.673401%,9.458923%);fill-opacity:1;" d="M 117.976563 423.253906 C 117.507813 423.253906 117.125 423.640625 117.125 424.109375 C 117.125 424.582031 117.507813 424.964844 117.976563 424.964844 C 118.445313 424.964844 118.832031 424.582031 118.832031 424.109375 C 118.832031 423.640625 118.445313 423.253906 117.976563 423.253906 M 117.976563 426.234375 C 116.804688 426.234375 115.851563 425.28125 115.851563 424.109375 C 115.851563 422.9375 116.804688 421.984375 117.976563 421.984375 C 119.148438 421.984375 120.101563 422.9375 120.101563 424.109375 C 120.101563 425.28125 119.148438 426.234375 117.976563 426.234375 "/>
<path style=" stroke:none;fill-rule:nonzero;fill:rgb(95.269775%,38.673401%,9.458923%);fill-opacity:1;" d="M 127.292969 402.0625 C 126.824219 402.0625 126.441406 402.445313 126.441406 402.914063 C 126.441406 403.386719 126.824219 403.769531 127.292969 403.769531 C 127.765625 403.769531 128.148438 403.386719 128.148438 402.914063 C 128.148438 402.445313 127.765625 402.0625 127.292969 402.0625 M 127.292969 405.039063 C 126.121094 405.039063 125.167969 404.085938 125.167969 402.914063 C 125.167969 401.746094 126.121094 400.789063 127.292969 400.789063 C 128.464844 400.789063 129.417969 401.746094 129.417969 402.914063 C 129.417969 404.085938 128.464844 405.039063 127.292969 405.039063 "/>
<path style=" stroke:none;fill-rule:nonzero;fill:rgb(95.269775%,38.673401%,9.458923%);fill-opacity:1;" d="M 120.53125 407.464844 C 120.058594 407.464844 119.675781 407.847656 119.675781 408.316406 C 119.675781 408.789063 120.058594 409.171875 120.53125 409.171875 C 121.003906 409.171875 121.386719 408.789063 121.386719 408.316406 C 121.386719 407.847656 121.003906 407.464844 120.53125 407.464844 M 120.53125 410.441406 C 119.359375 410.441406 118.40625 409.488281 118.40625 408.316406 C 118.40625 407.148438 119.359375 406.195313 120.53125 406.195313 C 121.703125 406.195313 122.65625 407.148438 122.65625 408.316406 C 122.65625 409.488281 121.703125 410.441406 120.53125 410.441406 "/>
<path style=" stroke:none;fill-rule:nonzero;fill:rgb(95.269775%,38.673401%,9.458923%);fill-opacity:1;" d="M 190.0625 424.796875 C 189.59375 424.796875 189.210938 425.179688 189.210938 425.648438 C 189.210938 426.121094 189.59375 426.503906 190.0625 426.503906 C 190.53125 426.503906 190.914063 426.121094 190.914063 425.648438 C 190.914063 425.179688 190.53125 424.796875 190.0625 424.796875 M 190.0625 427.773438 C 188.890625 427.773438 187.9375 426.820313 187.9375 425.648438 C 187.9375 424.476563 188.890625 423.523438 190.0625 423.523438 C 191.234375 423.523438 192.1875 424.476563 192.1875 425.648438 C 192.1875 426.820313 191.234375 427.773438 190.0625 427.773438 "/>
<path style=" stroke:none;fill-rule:nonzero;fill:rgb(95.269775%,38.673401%,9.458923%);fill-opacity:1;" d="M 119.945313 379.382813 C 119.476563 379.382813 119.089844 379.765625 119.089844 380.234375 C 119.089844 380.707031 119.476563 381.089844 119.945313 381.089844 C 120.417969 381.089844 120.800781 380.707031 120.800781 380.234375 C 120.800781 379.765625 120.417969 379.382813 119.945313 379.382813 M 119.945313 382.359375 C 118.773438 382.359375 117.820313 381.40625 117.820313 380.234375 C 117.820313 379.066406 118.773438 378.109375 119.945313 378.109375 C 121.117188 378.109375 122.070313 379.066406 122.070313 380.234375 C 122.070313 381.40625 121.117188 382.359375 119.945313 382.359375 "/>
<path style=" stroke:none;fill-rule:nonzero;fill:rgb(95.269775%,38.673401%,9.458923%);fill-opacity:1;" d="M 183.082031 401.894531 C 182.613281 401.894531 182.230469 402.277344 182.230469 402.75 C 182.230469 403.21875 182.613281 403.601563 183.082031 403.601563 C 183.554688 403.601563 183.9375 403.21875 183.9375 402.75 C 183.9375 402.277344 183.554688 401.894531 183.082031 401.894531 M 183.082031 404.871094 C 181.914063 404.871094 180.960938 403.917969 180.960938 402.75 C 180.960938 401.578125 181.914063 400.625 183.082031 400.625 C 184.253906 400.625 185.207031 401.578125 185.207031 402.75 C 185.207031 403.917969 184.253906 404.871094 183.082031 404.871094 "/>
<path style=" stroke:none;fill-rule:nonzero;fill:rgb(95.269775%,38.673401%,9.458923%);fill-opacity:1;" d="M 100.816406 355.601563 C 100.347656 355.601563 99.964844 355.984375 99.964844 356.457031 C 99.964844 356.925781 100.347656 357.308594 100.816406 357.308594 C 101.285156 357.308594 101.667969 356.925781 101.667969 356.457031 C 101.667969 355.984375 101.285156 355.601563 100.816406 355.601563 M 100.816406 358.582031 C 99.644531 358.582031 98.691406 357.628906 98.691406 356.457031 C 98.691406 355.285156 99.644531 354.332031 100.816406 354.332031 C 101.988281 354.332031 102.941406 355.285156 102.941406 356.457031 C 102.941406 357.628906 101.988281 358.582031 100.816406 358.582031 "/>
<path style=" stroke:none;fill-rule:nonzero;fill:rgb(95.269775%,38.673401%,9.458923%);fill-opacity:1;" d="M 117.546875 355.601563 C 117.078125 355.601563 116.695313 355.984375 116.695313 356.457031 C 116.695313 356.925781 117.078125 357.308594 117.546875 357.308594 C 118.019531 357.308594 118.402344 356.925781 118.402344 356.457031 C 118.402344 355.984375 118.019531 355.601563 117.546875 355.601563 M 117.546875 358.582031 C 116.378906 358.582031 115.425781 357.628906 115.425781 356.457031 C 115.425781 355.285156 116.378906 354.332031 117.546875 354.332031 C 118.71875 354.332031 119.671875 355.285156 119.671875 356.457031 C 119.671875 357.628906 118.71875 358.582031 117.546875 358.582031 "/>
<path style=" stroke:none;fill-rule:nonzero;fill:rgb(95.269775%,38.673401%,9.458923%);fill-opacity:1;" d="M 193.691406 354.765625 C 193.222656 354.765625 192.839844 355.148438 192.839844 355.621094 C 192.839844 356.089844 193.222656 356.472656 193.691406 356.472656 C 194.164063 356.472656 194.546875 356.089844 194.546875 355.621094 C 194.546875 355.148438 194.164063 354.765625 193.691406 354.765625 M 193.691406 357.742188 C 192.523438 357.742188 191.570313 356.789063 191.570313 355.621094 C 191.570313 354.449219 192.523438 353.496094 193.691406 353.496094 C 194.863281 353.496094 195.816406 354.449219 195.816406 355.621094 C 195.816406 356.789063 194.863281 357.742188 193.691406 357.742188 "/>
<path style=" stroke:none;fill-rule:nonzero;fill:rgb(95.269775%,38.673401%,9.458923%);fill-opacity:1;" d="M 211.308594 423.253906 C 210.839844 423.253906 210.457031 423.640625 210.457031 424.109375 C 210.457031 424.582031 210.839844 424.964844 211.308594 424.964844 C 211.78125 424.964844 212.164063 424.582031 212.164063 424.109375 C 212.164063 423.640625 211.78125 423.253906 211.308594 423.253906 M 211.308594 426.234375 C 210.136719 426.234375 209.183594 425.28125 209.183594 424.109375 C 209.183594 422.9375 210.136719 421.984375 211.308594 421.984375 C 212.480469 421.984375 213.433594 422.9375 213.433594 424.109375 C 213.433594 425.28125 212.480469 426.234375 211.308594 426.234375 "/>
<path style=" stroke:none;fill-rule:nonzero;fill:rgb(95.269775%,38.673401%,9.458923%);fill-opacity:1;" d="M 275.652344 427.191406 C 275.179688 427.191406 274.800781 427.574219 274.800781 428.042969 C 274.800781 428.515625 275.179688 428.898438 275.652344 428.898438 C 276.125 428.898438 276.507813 428.515625 276.507813 428.042969 C 276.507813 427.574219 276.125 427.191406 275.652344 427.191406 M 275.652344 430.167969 C 274.480469 430.167969 273.527344 429.21875 273.527344 428.042969 C 273.527344 426.875 274.480469 425.921875 275.652344 425.921875 C 276.824219 425.921875 277.777344 426.875 277.777344 428.042969 C 277.777344 429.21875 276.824219 430.167969 275.652344 430.167969 "/>
<path style=" stroke:none;fill-rule:nonzero;fill:rgb(95.269775%,38.673401%,9.458923%);fill-opacity:1;" d="M 272.070313 438.726563 C 271.601563 438.726563 271.21875 439.109375 271.21875 439.578125 C 271.21875 440.046875 271.601563 440.433594 272.070313 440.433594 C 272.542969 440.433594 272.925781 440.046875 272.925781 439.578125 C 272.925781 439.109375 272.542969 438.726563 272.070313 438.726563 M 272.070313 441.703125 C 270.902344 441.703125 269.949219 440.75 269.949219 439.578125 C 269.949219 438.40625 270.902344 437.453125 272.070313 437.453125 C 273.242188 437.453125 274.195313 438.40625 274.195313 439.578125 C 274.195313 440.75 273.242188 441.703125 272.070313 441.703125 "/>
<path style=" stroke:none;fill-rule:nonzero;fill:rgb(95.269775%,38.673401%,9.458923%);fill-opacity:1;" d="M 126.066406 368.53125 C 125.59375 368.53125 125.210938 368.914063 125.210938 369.382813 C 125.210938 369.851563 125.59375 370.238281 126.066406 370.238281 C 126.535156 370.238281 126.917969 369.851563 126.917969 369.382813 C 126.917969 368.914063 126.535156 368.53125 126.066406 368.53125 M 126.066406 371.507813 C 124.894531 371.507813 123.941406 370.554688 123.941406 369.382813 C 123.941406 368.210938 124.894531 367.257813 126.066406 367.257813 C 127.238281 367.257813 128.191406 368.210938 128.191406 369.382813 C 128.191406 370.554688 127.238281 371.507813 126.066406 371.507813 "/>
<path style=" stroke:none;fill-rule:nonzero;fill:rgb(95.269775%,38.673401%,9.458923%);fill-opacity:1;" d="M 271.867188 408.6875 C 271.398438 408.6875 271.011719 409.070313 271.011719 409.539063 C 271.011719 410.011719 271.398438 410.394531 271.867188 410.394531 C 272.339844 410.394531 272.722656 410.011719 272.722656 409.539063 C 272.722656 409.070313 272.339844 408.6875 271.867188 408.6875 M 271.867188 411.664063 C 270.695313 411.664063 269.742188 410.710938 269.742188 409.539063 C 269.742188 408.367188 270.695313 407.414063 271.867188 407.414063 C 273.039063 407.414063 273.992188 408.367188 273.992188 409.539063 C 273.992188 410.710938 273.039063 411.664063 271.867188 411.664063 "/>
<path style=" stroke:none;fill-rule:nonzero;fill:rgb(95.269775%,38.673401%,9.458923%);fill-opacity:1;" d="M 215.671875 399.5 C 215.203125 399.5 214.820313 399.882813 214.820313 400.355469 C 214.820313 400.828125 215.203125 401.207031 215.671875 401.207031 C 216.144531 401.207031 216.527344 400.828125 216.527344 400.355469 C 216.527344 399.882813 216.144531 399.5 215.671875 399.5 M 215.671875 402.480469 C 214.503906 402.480469 213.550781 401.527344 213.550781 400.355469 C 213.550781 399.183594 214.503906 398.230469 215.671875 398.230469 C 216.84375 398.230469 217.796875 399.183594 217.796875 400.355469 C 217.796875 401.527344 216.84375 402.480469 215.671875 402.480469 "/>
<path style=" stroke:none;fill-rule:nonzero;fill:rgb(95.269775%,38.673401%,9.458923%);fill-opacity:1;" d="M 211.03125 401.199219 C 210.5625 401.199219 210.179688 401.582031 210.179688 402.050781 C 210.179688 402.523438 210.5625 402.90625 211.03125 402.90625 C 211.5 402.90625 211.886719 402.523438 211.886719 402.050781 C 211.886719 401.582031 211.5 401.199219 211.03125 401.199219 M 211.03125 404.175781 C 209.859375 404.175781 208.90625 403.222656 208.90625 402.050781 C 208.90625 400.878906 209.859375 399.925781 211.03125 399.925781 C 212.203125 399.925781 213.15625 400.878906 213.15625 402.050781 C 213.15625 403.222656 212.203125 404.175781 211.03125 404.175781 "/>
<path style=" stroke:none;fill-rule:nonzero;fill:rgb(95.269775%,38.673401%,9.458923%);fill-opacity:1;" d="M 24.203125 430.632813 C 23.734375 430.632813 23.347656 431.015625 23.347656 431.484375 C 23.347656 431.957031 23.734375 432.339844 24.203125 432.339844 C 24.671875 432.339844 25.054688 431.957031 25.054688 431.484375 C 25.054688 431.015625 24.671875 430.632813 24.203125 430.632813 M 24.203125 433.609375 C 23.03125 433.609375 22.078125 432.65625 22.078125 431.484375 C 22.078125 430.316406 23.03125 429.363281 24.203125 429.363281 C 25.375 429.363281 26.328125 430.316406 26.328125 431.484375 C 26.328125 432.65625 25.375 433.609375 24.203125 433.609375 "/>
<path style=" stroke:none;fill-rule:nonzero;fill:rgb(95.269775%,38.673401%,9.458923%);fill-opacity:1;" d="M 33.445313 439.808594 C 32.976563 439.808594 32.59375 440.195313 32.59375 440.664063 C 32.59375 441.132813 32.976563 441.515625 33.445313 441.515625 C 33.917969 441.515625 34.300781 441.132813 34.300781 440.664063 C 34.300781 440.195313 33.917969 439.808594 33.445313 439.808594 M 33.445313 442.785156 C 32.273438 442.785156 31.320313 441.832031 31.320313 440.664063 C 31.320313 439.492188 32.273438 438.539063 33.445313 438.539063 C 34.617188 438.539063 35.570313 439.492188 35.570313 440.664063 C 35.570313 441.832031 34.617188 442.785156 33.445313 442.785156 "/>
<path style=" stroke:none;fill-rule:nonzero;fill:rgb(95.269775%,38.673401%,9.458923%);fill-opacity:1;" d="M 33.179688 473.90625 C 32.710938 473.90625 32.324219 474.289063 32.324219 474.757813 C 32.324219 475.230469 32.710938 475.613281 33.179688 475.613281 C 33.652344 475.613281 34.035156 475.230469 34.035156 474.757813 C 34.035156 474.289063 33.652344 473.90625 33.179688 473.90625 M 33.179688 476.882813 C 32.007813 476.882813 31.054688 475.929688 31.054688 474.757813 C 31.054688 473.589844 32.007813 472.636719 33.179688 472.636719 C 34.351563 472.636719 35.304688 473.589844 35.304688 474.757813 C 35.304688 475.929688 34.351563 476.882813 33.179688 476.882813 "/>
<path style=" stroke:none;fill-rule:nonzero;fill:rgb(95.269775%,38.673401%,9.458923%);fill-opacity:1;" d="M 46.539063 466.738281 C 46.070313 466.738281 45.683594 467.121094 45.683594 467.589844 C 45.683594 468.0625 46.070313 468.445313 46.539063 468.445313 C 47.007813 468.445313 47.390625 468.0625 47.390625 467.589844 C 47.390625 467.121094 47.007813 466.738281 46.539063 466.738281 M 46.539063 469.714844 C 45.367188 469.714844 44.414063 468.761719 44.414063 467.589844 C 44.414063 466.417969 45.367188 465.464844 46.539063 465.464844 C 47.707031 465.464844 48.664063 466.417969 48.664063 467.589844 C 48.664063 468.761719 47.707031 469.714844 46.539063 469.714844 "/>
<path style=" stroke:none;fill-rule:nonzero;fill:rgb(95.269775%,38.673401%,9.458923%);fill-opacity:1;" d="M 87.261719 470.023438 C 86.792969 470.023438 86.410156 470.40625 86.410156 470.875 C 86.410156 471.347656 86.792969 471.730469 87.261719 471.730469 C 87.734375 471.730469 88.117188 471.347656 88.117188 470.875 C 88.117188 470.40625 87.734375 470.023438 87.261719 470.023438 M 87.261719 473 C 86.089844 473 85.140625 472.046875 85.140625 470.875 C 85.140625 469.707031 86.089844 468.753906 87.261719 468.753906 C 88.433594 468.753906 89.386719 469.707031 89.386719 470.875 C 89.386719 472.046875 88.433594 473 87.261719 473 "/>
<path style=" stroke:none;fill-rule:nonzero;fill:rgb(95.269775%,38.673401%,9.458923%);fill-opacity:1;" d="M 52.574219 482.101563 C 52.105469 482.101563 51.71875 482.484375 51.71875 482.953125 C 51.71875 483.425781 52.105469 483.808594 52.574219 483.808594 C 53.046875 483.808594 53.425781 483.425781 53.425781 482.953125 C 53.425781 482.484375 53.046875 482.101563 52.574219 482.101563 M 52.574219 485.078125 C 51.402344 485.078125 50.449219 484.125 50.449219 482.953125 C 50.449219 481.785156 51.402344 480.832031 52.574219 480.832031 C 53.746094 480.832031 54.699219 481.785156 54.699219 482.953125 C 54.699219 484.125 53.746094 485.078125 52.574219 485.078125 "/>
<path style=" stroke:none;fill-rule:nonzero;fill:rgb(95.269775%,38.673401%,9.458923%);fill-opacity:1;" d="M 76.332031 489.710938 C 75.863281 489.710938 75.480469 490.09375 75.480469 490.5625 C 75.480469 491.035156 75.863281 491.417969 76.332031 491.417969 C 76.804688 491.417969 77.1875 491.035156 77.1875 490.5625 C 77.1875 490.09375 76.804688 489.710938 76.332031 489.710938 M 76.332031 492.6875 C 75.160156 492.6875 74.207031 491.734375 74.207031 490.5625 C 74.207031 489.394531 75.160156 488.441406 76.332031 488.441406 C 77.503906 488.441406 78.457031 489.394531 78.457031 490.5625 C 78.457031 491.734375 77.503906 492.6875 76.332031 492.6875 "/>
<path style=" stroke:none;fill-rule:nonzero;fill:rgb(95.269775%,38.673401%,9.458923%);fill-opacity:1;" d="M 56.457031 487.542969 C 55.988281 487.542969 55.601563 487.925781 55.601563 488.394531 C 55.601563 488.867188 55.988281 489.25 56.457031 489.25 C 56.929688 489.25 57.3125 488.867188 57.3125 488.394531 C 57.3125 487.925781 56.929688 487.542969 56.457031 487.542969 M 56.457031 490.519531 C 55.285156 490.519531 54.332031 489.566406 54.332031 488.394531 C 54.332031 487.222656 55.285156 486.269531 56.457031 486.269531 C 57.628906 486.269531 58.582031 487.222656 58.582031 488.394531 C 58.582031 489.566406 57.628906 490.519531 56.457031 490.519531 "/>
<path style=" stroke:none;fill-rule:nonzero;fill:rgb(95.269775%,38.673401%,9.458923%);fill-opacity:1;" d="M 99.402344 475.398438 C 98.933594 475.398438 98.550781 475.78125 98.550781 476.25 C 98.550781 476.722656 98.933594 477.105469 99.402344 477.105469 C 99.875 477.105469 100.257813 476.722656 100.257813 476.25 C 100.257813 475.78125 99.875 475.398438 99.402344 475.398438 M 99.402344 478.375 C 98.234375 478.375 97.28125 477.421875 97.28125 476.25 C 97.28125 475.082031 98.234375 474.128906 99.402344 474.128906 C 100.574219 474.128906 101.527344 475.082031 101.527344 476.25 C 101.527344 477.421875 100.574219 478.375 99.402344 478.375 "/>
<path style=" stroke:none;fill-rule:nonzero;fill:rgb(95.269775%,38.673401%,9.458923%);fill-opacity:1;" d="M 119.621094 482.519531 C 119.152344 482.519531 118.769531 482.90625 118.769531 483.375 C 118.769531 483.84375 119.152344 484.230469 119.621094 484.230469 C 120.09375 484.230469 120.476563 483.84375 120.476563 483.375 C 120.476563 482.90625 120.09375 482.519531 119.621094 482.519531 M 119.621094 485.5 C 118.449219 485.5 117.496094 484.546875 117.496094 483.375 C 117.496094 482.203125 118.449219 481.25 119.621094 481.25 C 120.792969 481.25 121.746094 482.203125 121.746094 483.375 C 121.746094 484.546875 120.792969 485.5 119.621094 485.5 "/>
<path style=" stroke:none;fill-rule:nonzero;fill:rgb(95.269775%,38.673401%,9.458923%);fill-opacity:1;" d="M 128.828125 479.28125 C 128.359375 479.28125 127.976563 479.664063 127.976563 480.132813 C 127.976563 480.605469 128.359375 480.988281 128.828125 480.988281 C 129.300781 480.988281 129.683594 480.605469 129.683594 480.132813 C 129.683594 479.664063 129.300781 479.28125 128.828125 479.28125 M 128.828125 482.257813 C 127.660156 482.257813 126.707031 481.304688 126.707031 480.132813 C 126.707031 478.964844 127.660156 478.011719 128.828125 478.011719 C 130 478.011719 130.953125 478.964844 130.953125 480.132813 C 130.953125 481.304688 130 482.257813 128.828125 482.257813 "/>
<path style=" stroke:none;fill-rule:nonzero;fill:rgb(95.269775%,38.673401%,9.458923%);fill-opacity:1;" d="M 180.632813 475.597656 C 180.160156 475.597656 179.78125 475.980469 179.78125 476.449219 C 179.78125 476.921875 180.160156 477.304688 180.632813 477.304688 C 181.105469 477.304688 181.488281 476.921875 181.488281 476.449219 C 181.488281 475.980469 181.105469 475.597656 180.632813 475.597656 M 180.632813 478.574219 C 179.460938 478.574219 178.507813 477.621094 178.507813 476.449219 C 178.507813 475.28125 179.460938 474.328125 180.632813 474.328125 C 181.804688 474.328125 182.757813 475.28125 182.757813 476.449219 C 182.757813 477.621094 181.804688 478.574219 180.632813 478.574219 "/>
<path style=" stroke:none;fill-rule:nonzero;fill:rgb(95.269775%,38.673401%,9.458923%);fill-opacity:1;" d="M 191.761719 478.636719 C 191.289063 478.636719 190.90625 479.023438 190.90625 479.492188 C 190.90625 479.960938 191.289063 480.347656 191.761719 480.347656 C 192.230469 480.347656 192.613281 479.960938 192.613281 479.492188 C 192.613281 479.023438 192.230469 478.636719 191.761719 478.636719 M 191.761719 481.617188 C 190.589844 481.617188 189.636719 480.664063 189.636719 479.492188 C 189.636719 478.320313 190.589844 477.367188 191.761719 477.367188 C 192.933594 477.367188 193.882813 478.320313 193.882813 479.492188 C 193.882813 480.664063 192.933594 481.617188 191.761719 481.617188 "/>
<path style=" stroke:none;fill-rule:nonzero;fill:rgb(95.269775%,38.673401%,9.458923%);fill-opacity:1;" d="M 212.902344 489.023438 C 212.429688 489.023438 212.046875 489.40625 212.046875 489.875 C 212.046875 490.347656 212.429688 490.730469 212.902344 490.730469 C 213.371094 490.730469 213.753906 490.347656 213.753906 489.875 C 213.753906 489.40625 213.371094 489.023438 212.902344 489.023438 M 212.902344 492 C 211.730469 492 210.777344 491.046875 210.777344 489.875 C 210.777344 488.703125 211.730469 487.75 212.902344 487.75 C 214.070313 487.75 215.023438 488.703125 215.023438 489.875 C 215.023438 491.046875 214.070313 492 212.902344 492 "/>
<path style=" stroke:none;fill-rule:nonzero;fill:rgb(95.269775%,38.673401%,9.458923%);fill-opacity:1;" d="M 210.175781 354.765625 C 209.703125 354.765625 209.320313 355.148438 209.320313 355.621094 C 209.320313 356.089844 209.703125 356.472656 210.175781 356.472656 C 210.644531 356.472656 211.027344 356.089844 211.027344 355.621094 C 211.027344 355.148438 210.644531 354.765625 210.175781 354.765625 M 210.175781 357.742188 C 209.003906 357.742188 208.050781 356.789063 208.050781 355.621094 C 208.050781 354.449219 209.003906 353.496094 210.175781 353.496094 C 211.347656 353.496094 212.296875 354.449219 212.296875 355.621094 C 212.296875 356.789063 211.347656 357.742188 210.175781 357.742188 "/>
<path style=" stroke:none;fill-rule:nonzero;fill:rgb(95.269775%,38.673401%,9.458923%);fill-opacity:1;" d="M 250.3125 442.007813 L 250.3125 448.320313 L 224.726563 448.320313 L 224.726563 466.65625 L 246.554688 466.65625 L 246.554688 472.964844 L 224.726563 472.964844 L 224.726563 495.921875 L 216.949219 495.921875 L 216.949219 442.007813 Z M 250.3125 442.007813 "/>
<path style=" stroke:none;fill-rule:nonzero;fill:rgb(95.269775%,38.673401%,9.458923%);fill-opacity:1;" d="M 267.21875 495.921875 L 259.441406 495.921875 L 259.441406 442.007813 L 267.21875 442.007813 Z M 267.21875 495.921875 "/>
<path style=" stroke:none;fill-rule:nonzero;fill:rgb(95.269775%,38.673401%,9.458923%);fill-opacity:1;" d="M 286.246094 442.234375 C 286.582031 442.382813 286.964844 442.75 287.390625 443.324219 L 318.085938 483.109375 C 318.035156 482.433594 317.988281 481.757813 317.953125 481.082031 C 317.917969 480.40625 317.898438 479.777344 317.898438 479.203125 L 317.898438 442.007813 L 324.695313 442.007813 L 324.695313 495.921875 L 320.789063 495.921875 C 320.1875 495.921875 319.679688 495.8125 319.269531 495.601563 C 318.855469 495.390625 318.445313 495.03125 318.046875 494.53125 L 287.316406 454.746094 C 287.363281 455.398438 287.410156 456.042969 287.449219 456.679688 C 287.484375 457.320313 287.503906 457.914063 287.503906 458.464844 L 287.503906 495.921875 L 280.703125 495.921875 L 280.703125 442.007813 L 284.722656 442.007813 C 285.398438 442.007813 285.90625 442.085938 286.246094 442.234375 "/>
<path style=" stroke:none;fill-rule:nonzero;fill:rgb(8.462524%,25.305176%,48.274231%);fill-opacity:1;" d="M 374.816406 442.007813 L 374.816406 448.511719 L 357.574219 448.511719 L 357.574219 495.921875 L 349.832031 495.921875 L 349.832031 448.511719 L 332.550781 448.511719 L 332.550781 442.007813 Z M 374.816406 442.007813 "/>
<path style=" stroke:none;fill-rule:nonzero;fill:rgb(8.462524%,25.305176%,48.274231%);fill-opacity:1;" d="M 415.992188 442.007813 L 415.992188 448.320313 L 390.40625 448.320313 L 390.40625 465.679688 L 411.035156 465.679688 L 411.035156 471.761719 L 390.40625 471.761719 L 390.40625 489.609375 L 416.027344 489.609375 L 415.992188 495.921875 L 382.632813 495.921875 L 382.632813 442.007813 Z M 415.992188 442.007813 "/>
<path style=" stroke:none;fill-rule:nonzero;fill:rgb(8.462524%,25.305176%,48.274231%);fill-opacity:1;" d="M 462.578125 484.5 C 463.003906 484.5 463.378906 484.664063 463.703125 484.988281 L 466.78125 488.371094 C 464.578125 490.949219 461.894531 492.953125 458.722656 494.382813 C 455.554688 495.808594 451.757813 496.519531 447.320313 496.519531 C 443.417969 496.519531 439.878906 495.847656 436.710938 494.492188 C 433.542969 493.140625 430.835938 491.25 428.597656 488.820313 C 426.355469 486.390625 424.625 483.484375 423.410156 480.105469 C 422.195313 476.722656 421.589844 473.003906 421.589844 468.945313 C 421.589844 464.886719 422.226563 461.167969 423.503906 457.789063 C 424.78125 454.40625 426.585938 451.507813 428.914063 449.09375 C 431.242188 446.675781 434.027344 444.789063 437.273438 443.4375 C 440.515625 442.085938 444.09375 441.40625 448 441.40625 C 451.832031 441.40625 455.230469 442.035156 458.199219 443.289063 C 461.167969 444.539063 463.753906 446.203125 465.957031 448.28125 L 463.402344 451.890625 C 463.226563 452.140625 463.019531 452.347656 462.78125 452.511719 C 462.546875 452.675781 462.214844 452.753906 461.789063 452.753906 C 461.3125 452.753906 460.753906 452.515625 460.117188 452.039063 C 459.476563 451.5625 458.636719 451.03125 457.597656 450.445313 C 456.558594 449.855469 455.261719 449.324219 453.710938 448.847656 C 452.15625 448.371094 450.238281 448.132813 447.960938 448.132813 C 445.257813 448.132813 442.769531 448.609375 440.503906 449.5625 C 438.234375 450.511719 436.289063 451.878906 434.664063 453.65625 C 433.03125 455.433594 431.769531 457.613281 430.871094 460.191406 C 429.96875 462.773438 429.515625 465.691406 429.515625 468.945313 C 429.515625 472.253906 429.984375 475.199219 430.925781 477.792969 C 431.863281 480.386719 433.152344 482.570313 434.792969 484.351563 C 436.433594 486.128906 438.371094 487.488281 440.597656 488.425781 C 442.828125 489.363281 445.21875 489.835938 447.773438 489.835938 C 449.351563 489.835938 450.765625 489.742188 452.019531 489.550781 C 453.269531 489.363281 454.429688 489.082031 455.496094 488.707031 C 456.558594 488.332031 457.554688 487.84375 458.480469 487.242188 C 459.40625 486.640625 460.335938 485.925781 461.261719 485.101563 C 461.460938 484.925781 461.667969 484.78125 461.878906 484.667969 C 462.09375 484.558594 462.324219 484.5 462.578125 484.5 "/>
<path style=" stroke:none;fill-rule:nonzero;fill:rgb(8.462524%,25.305176%,48.274231%);fill-opacity:1;" d="M 518.964844 495.921875 L 511.191406 495.921875 L 511.191406 471.539063 L 482.75 471.539063 L 482.75 495.921875 L 474.972656 495.921875 L 474.972656 442.007813 L 482.75 442.007813 L 482.75 465.902344 L 511.191406 465.902344 L 511.191406 442.007813 L 518.964844 442.007813 Z M 518.964844 495.921875 "/>
<path style=" stroke:none;fill-rule:nonzero;fill:rgb(8.462524%,25.305176%,48.274231%);fill-opacity:1;" d="M 332.730469 388.195313 L 332.730469 435.214844 L 329.035156 435.214844 L 329.035156 396.886719 L 328.90625 396.886719 L 314.117188 425.613281 L 312.238281 425.613281 L 297.453125 396.820313 L 297.320313 396.820313 L 297.320313 435.214844 L 293.625 435.214844 L 293.625 388.195313 L 297.125 388.195313 L 313.082031 419.90625 L 313.207031 419.90625 L 329.226563 388.195313 Z M 332.730469 388.195313 "/>
<path style=" stroke:none;fill-rule:nonzero;fill:rgb(8.462524%,25.305176%,48.274231%);fill-opacity:1;" d="M 374.242188 388.195313 L 374.242188 420.753906 C 374.242188 430.21875 368.859375 435.859375 358.875 435.859375 C 349.144531 435.859375 343.566406 430.21875 343.566406 420.816406 L 343.566406 388.195313 L 347.589844 388.195313 L 347.589844 420.816406 C 347.589844 429.570313 352.84375 432.292969 358.875 432.292969 C 366.136719 432.292969 370.289063 428.792969 370.289063 420.816406 L 370.289063 388.195313 Z M 374.242188 388.195313 "/>
<path style=" stroke:none;fill-rule:nonzero;fill:rgb(8.462524%,25.305176%,48.274231%);fill-opacity:1;" d="M 424.183594 388.195313 L 424.183594 435.214844 L 420.484375 435.214844 L 420.484375 396.886719 L 420.355469 396.886719 L 405.570313 425.613281 L 403.691406 425.613281 L 388.902344 396.820313 L 388.777344 396.820313 L 388.777344 435.214844 L 385.078125 435.214844 L 385.078125 388.195313 L 388.578125 388.195313 L 404.535156 419.90625 L 404.660156 419.90625 L 420.679688 388.195313 Z M 424.183594 388.195313 "/>
<path style=" stroke:none;fill-rule:nonzero;fill:rgb(8.462524%,25.305176%,48.274231%);fill-opacity:1;" d="M 439.6875 431.777344 L 450.324219 431.777344 C 456.679688 431.777344 460.050781 429.179688 460.050781 421.722656 C 460.050781 415.304688 456.871094 412.386719 450.324219 412.386719 L 439.6875 412.386719 Z M 439.6875 408.949219 L 448.960938 408.949219 C 455.382813 408.949219 457.84375 405.769531 457.84375 400 C 457.84375 394.421875 455.1875 391.699219 448.960938 391.699219 L 439.6875 391.699219 Z M 454.734375 410.246094 L 454.734375 410.375 C 461.089844 411.609375 464.007813 415.628906 464.007813 421.855469 C 464.007813 430.671875 459.917969 435.214844 450.453125 435.214844 L 435.734375 435.214844 L 435.734375 388.195313 L 448.898438 388.195313 C 457.328125 388.195313 461.671875 392.539063 461.671875 399.742188 C 461.671875 405.707031 459.53125 408.882813 454.734375 410.246094 "/>
<path style=" stroke:none;fill-rule:nonzero;fill:rgb(8.462524%,25.305176%,48.274231%);fill-opacity:1;" d="M 477.175781 418.804688 L 494.878906 418.804688 L 486.0625 392.476563 L 485.929688 392.476563 Z M 471.730469 435.214844 L 467.515625 435.214844 L 483.988281 388.195313 L 488.136719 388.195313 L 504.609375 435.214844 L 500.394531 435.214844 L 495.984375 422.113281 L 476.074219 422.113281 Z M 471.730469 435.214844 "/>
<path style=" stroke:none;fill-rule:nonzero;fill:rgb(8.462524%,25.305176%,48.274231%);fill-opacity:1;" d="M 516.675781 435.214844 L 512.65625 435.214844 L 512.65625 388.195313 L 516.675781 388.195313 Z M 516.675781 435.214844 "/>
</g>
</svg>
